<?xml version="1.0" encoding="UTF-8" standalone="no" ?>
<!DOCTYPE svg PUBLIC "-//W3C//DTD SVG 1.1//EN" "http://www.w3.org/Graphics/SVG/1.1/DTD/svg11.dtd">
<svg xmlns="http://www.w3.org/2000/svg" xmlns:xlink="http://www.w3.org/1999/xlink" version="1.1" width="1280" height="1024" viewBox="0 0 1280 1024" xml:space="preserve">
<desc>Created with Fabric.js 3.1.0</desc>
<defs>
</defs>
<g transform="matrix(1 0 0 1 640 512)" id="background-logo"  >
<rect style="stroke: none; stroke-width: 1; stroke-dasharray: none; stroke-linecap: butt; stroke-dashoffset: 0; stroke-linejoin: miter; stroke-miterlimit: 4; fill: rgb(255,255,255); fill-rule: nonzero; opacity: 1;"  paint-order="stroke"  x="-640" y="-512" rx="0" ry="0" width="1280" height="1024" />
</g>
<g transform="matrix(1.965451055662188 0 0 1.965451055662188 640 409.9927129652484)" style="" id="logo-logo"  >
	<g transform="matrix(1.2944177760134776 0 0 1.2944177760134776 0 0)" style=""  >
	<g transform="matrix(1 0 0 1 0 0)"  >
<path style="stroke: none; stroke-width: 1; stroke-dasharray: none; stroke-linecap: butt; stroke-dashoffset: 0; stroke-linejoin: miter; stroke-miterlimit: 4; fill: rgb(0,0,0); fill-rule: nonzero; opacity: 1;"  paint-order="stroke"  transform=" translate(-100, -98)" d="M 200 98 L 184.22 70.7 l -0.72 -24.22 L 164.23 36.12 L 150 11.49 H 118.45 L 97.09 0 L 78.47 11.49 H 50 L 34.22 38.78 L 13.58 51.52 l 0.65 21.85 L 0 98 l 15.78 27.3 l 0.72 24.22 l 19.27 10.37 L 50 184.51 H 81.55 L 102.91 196 l 18.63 -11.49 H 150 l 15.78 -27.3 l 20.64 -12.73 l -0.65 -21.86 Z M 1.71 98 L 14.32 76.18 l 1.36 46 Z M 50.85 13 H 76.07 L 36.88 37.15 Z m 0 170.06 l -12.6 -21.81 L 78.81 183 Z M 121.19 13 h 28 l 12.61 21.81 Z m 28 170.06 H 123.93 l 39.19 -24.18 Z M 184.32 73.82 l 14 24.18 l -12.61 21.81 Z" stroke-linecap="round" />
</g>
</g>
</g>
<g transform="matrix(1.965451055662188 0 0 1.965451055662188 636.2312859884837 786.0421781717573)" id="text-logo-path"  >
<path style="stroke: none; stroke-width: 1; stroke-dasharray: none; stroke-linecap: butt; stroke-dashoffset: 0; stroke-linejoin: miter; stroke-miterlimit: 10; fill: rgb(0,0,0); fill-rule: nonzero; opacity: 1;"  paint-order="stroke"  transform=" translate(-150.07, 19.549999999999997)" d="M 2.71 0 L -0.53 0 L 23.5 -52.22 L 26.32 -52.22 L 49.44 0 L 46.43 0 L 38.95 -16.77 L 10.3 -16.77 L 2.71 0 Z M 24.96 -48.35 L 11.54 -19.33 L 37.9 -19.33 L 24.96 -48.35 Z M 55.64 0 L 52.86 0 L 52.86 -37.56 L 55.64 -37.56 L 55.64 -29.4 Q 56.89 -32.18 59.52 -34.4 L 59.52 -34.4 Q 64.44 -38.5 72.04 -38.5 L 72.04 -38.5 L 72.04 -35.94 Q 63.16 -35.94 59.03 -29.25 L 59.03 -29.25 Q 55.64 -23.72 55.64 -15 L 55.64 -15 L 55.64 0 Z M 80.12 0 L 77.34 0 L 77.34 -37.56 L 80.12 -37.56 L 80.12 -29.4 Q 81.36 -32.18 83.99 -34.4 L 83.99 -34.4 Q 88.92 -38.5 96.51 -38.5 L 96.51 -38.5 L 96.51 -35.94 Q 87.64 -35.94 83.5 -29.25 L 83.5 -29.25 Q 80.12 -23.72 80.12 -15 L 80.12 -15 L 80.12 0 Z M 99.6 -18.72 L 99.6 -18.72 Q 99.6 -27.41 104.3 -32.79 L 104.3 -32.79 Q 109.37 -38.5 118.24 -38.5 L 118.24 -38.5 Q 129.56 -38.5 134.19 -29.4 L 134.19 -29.4 L 134.19 -38.35 L 136.93 -38.35 L 136.93 0 L 134.19 0 L 134.19 -8.46 Q 129.26 0.86 117.91 0.86 L 117.91 0.86 Q 109.22 0.86 104.3 -4.85 L 104.3 -4.85 Q 99.6 -10.15 99.6 -18.72 Z M 102.3 -18.72 L 102.3 -18.72 Q 102.3 -11.32 106.14 -6.69 L 106.14 -6.69 Q 110.39 -1.69 117.83 -1.69 L 117.83 -1.69 Q 125.24 -1.69 129.79 -6.69 L 129.79 -6.69 Q 134.19 -11.47 134.19 -18.72 L 134.19 -18.72 Q 134.19 -26.66 129.94 -31.3 Q 125.69 -35.94 117.83 -35.94 L 117.83 -35.94 Q 110.42 -35.94 106.21 -30.79 L 106.21 -30.79 Q 102.3 -26.02 102.3 -18.72 Z M 143.47 1.09 L 143.47 1.09 L 146.25 1.09 Q 147.12 11.24 160.05 11.24 L 160.05 11.24 Q 174.98 11.24 174.98 -1.62 L 174.98 -1.62 L 174.98 -6.54 Q 170.99 1.17 160.58 1.17 L 160.58 1.17 Q 153.59 1.17 149.41 -2.43 Q 145.24 -6.02 145.24 -12.86 L 145.24 -12.86 L 145.24 -37.56 L 148.02 -37.56 L 148.02 -12.93 Q 148.02 -7.22 151.37 -4.34 Q 154.71 -1.47 160.58 -1.47 L 160.58 -1.47 Q 167.72 -1.47 171.52 -5.87 L 171.52 -5.87 Q 174.98 -9.96 174.98 -17.03 L 174.98 -17.03 L 174.98 -37.56 L 177.76 -37.56 L 177.76 -1.54 Q 177.76 13.8 159.9 13.8 L 159.9 13.8 Q 153.21 13.8 148.96 11.17 L 148.96 11.17 Q 143.89 7.93 143.47 1.09 Z M 183.89 -26.09 L 183.89 -26.09 Q 183.89 -38.42 191.09 -45.19 Q 198.29 -51.96 210.92 -51.96 L 210.92 -51.96 Q 223.56 -51.96 230.83 -45.19 Q 238.11 -38.42 238.11 -26.09 L 238.11 -26.09 Q 238.11 -13.54 230.79 -6.5 Q 223.48 0.53 210.92 0.53 L 210.92 0.53 Q 198.21 0.53 191.05 -6.54 Q 183.89 -13.61 183.89 -26.09 Z M 186.67 -26.09 L 186.67 -26.09 Q 186.67 -15 193.14 -8.5 Q 199.61 -1.99 210.92 -1.99 L 210.92 -1.99 Q 222.39 -1.99 228.86 -8.42 Q 235.32 -14.85 235.32 -26.09 L 235.32 -26.09 Q 235.32 -37.33 228.71 -43.5 L 228.71 -43.5 Q 222.31 -49.44 210.92 -49.44 L 210.92 -49.44 Q 199.53 -49.44 193.1 -43.31 Q 186.67 -37.18 186.67 -26.09 Z M 246.72 -1.09 L 246.72 -1.09 L 246.72 -5.3 Q 246.72 -6.54 248.11 -6.54 L 248.11 -6.54 Q 249.5 -6.54 249.5 -5.3 L 249.5 -5.3 L 249.5 -1.09 Q 249.5 0.15 248.11 0.15 L 248.11 0.15 Q 246.72 0.15 246.72 -1.09 Z M 244.12 13.8 L 244.12 11.32 Q 259.84 11.32 259.8 -1.69 L 259.8 -1.69 L 259.8 -37.82 L 262.58 -37.82 L 262.58 -1.62 Q 262.62 13.8 244.12 13.8 L 244.12 13.8 Z M 260.03 -46.51 L 260.03 -46.51 L 260.03 -51.73 Q 260.48 -52.9 261.27 -52.9 L 261.27 -52.9 Q 261.94 -52.9 262.81 -51.81 L 262.81 -51.81 L 262.81 -46.36 Q 262.02 -45.42 261.27 -45.42 L 261.27 -45.42 Q 260.4 -45.42 260.03 -46.51 Z M 269.2 -13.61 L 269.2 -13.61 L 272.09 -13.61 Q 272.09 -1.69 285.82 -1.69 L 285.82 -1.69 Q 290.59 -1.69 293.68 -3.31 L 293.68 -3.31 Q 297.74 -5.34 297.74 -9.55 L 297.74 -9.55 Q 297.74 -14.93 289.58 -16.77 L 289.58 -16.77 Q 289.05 -16.92 281.83 -18.08 L 281.83 -18.08 Q 270.82 -19.78 270.82 -27.86 L 270.82 -27.86 Q 270.82 -33.01 275.1 -35.94 L 275.1 -35.94 Q 278.86 -38.58 284.43 -38.58 L 284.43 -38.58 Q 300.37 -38.58 300.44 -25.64 L 300.44 -25.64 L 297.44 -25.64 Q 297.44 -35.87 284.8 -35.87 L 284.8 -35.87 Q 280.48 -35.87 277.36 -34.03 L 277.36 -34.03 Q 273.75 -31.81 273.71 -27.86 L 273.71 -27.86 Q 273.71 -22.63 281.64 -21.09 L 281.64 -21.09 Q 283.71 -20.72 289.8 -19.63 L 289.8 -19.63 Q 300.67 -17.71 300.67 -9.63 L 300.67 -9.63 Q 300.67 -3.91 295.74 -1.17 L 295.74 -1.17 Q 291.91 1.02 285.74 1.02 L 285.74 1.02 Q 269.2 1.02 269.2 -13.61 Z" stroke-linecap="round" />
</g>
<g transform="matrix(1.965451055662188 0 0 1.965451055662188 640 400.39128680604625)" id="tagline-61f527d4-6b98-4765-8423-141356a9a9dd-logo-path"  >
<path style="stroke: none; stroke-width: 0; stroke-dasharray: none; stroke-linecap: butt; stroke-dashoffset: 0; stroke-linejoin: miter; stroke-miterlimit: 4; fill: rgb(255,255,255); fill-rule: nonzero; opacity: 1;"  paint-order="stroke"  transform=" translate(-29.205, 37.515)" d="M 5.33 0 L 1.93 0 L 29.21 -75.03 L 56.48 0 L 12.54 0 L 12.54 -3.19 L 51.88 -3.19 L 29.21 -65.57 L 5.33 0 Z" stroke-linecap="round" />
</g>
<g transform="matrix(1.965451055662188 0 0 1.965451055662188 639.0930902111324 899.4298750623523)" id="tagline-97878cba-e777-42a7-98e9-53f102e7bfd7-logo-path"  >
<path style="stroke: none; stroke-width: 0; stroke-dasharray: none; stroke-linecap: butt; stroke-dashoffset: 0; stroke-linejoin: miter; stroke-miterlimit: 4; fill: rgb(60,60,60); fill-rule: nonzero; opacity: 1;"  paint-order="stroke"  transform=" translate(-241.025, 7.615)" d="M 0.37 -4.67 L 0.37 -4.67 L 1.44 -4.67 Q 1.77 -0.78 6.58 -0.78 L 6.58 -0.78 Q 9.49 -0.78 10.69 -1.96 Q 11.88 -3.15 11.88 -5.98 L 11.88 -5.98 L 11.88 -20.35 L 12.96 -20.35 L 12.96 -5.79 Q 12.96 0.21 6.69 0.21 L 6.69 0.21 Q 0.85 0.21 0.37 -4.67 Z M 15.23 -7.29 L 15.23 -7.29 Q 15.23 -10.68 17.07 -12.77 L 17.07 -12.77 Q 19.04 -15 22.5 -15 L 22.5 -15 Q 26.91 -15 28.71 -11.46 L 28.71 -11.46 L 28.71 -14.94 L 29.78 -14.94 L 29.78 0 L 28.71 0 L 28.71 -3.3 Q 26.79 0.34 22.37 0.34 L 22.37 0.34 Q 18.98 0.34 17.07 -1.89 L 17.07 -1.89 Q 15.23 -3.96 15.23 -7.29 Z M 16.29 -7.29 L 16.29 -7.29 Q 16.29 -4.41 17.78 -2.61 L 17.78 -2.61 Q 19.44 -0.66 22.34 -0.66 L 22.34 -0.66 Q 25.22 -0.66 27 -2.61 L 27 -2.61 Q 28.71 -4.47 28.71 -7.29 L 28.71 -7.29 Q 28.71 -10.39 27.06 -12.19 Q 25.4 -14 22.34 -14 L 22.34 -14 Q 19.45 -14 17.81 -12 L 17.81 -12 Q 16.29 -10.14 16.29 -7.29 Z M 38.31 0 L 31.41 -14.63 L 32.7 -14.63 L 38.85 -1.23 L 44.55 -14.63 L 45.72 -14.63 L 39.39 0 L 38.31 0 Z M 46.27 -7.29 L 46.27 -7.29 Q 46.27 -10.68 48.11 -12.77 L 48.11 -12.77 Q 50.08 -15 53.54 -15 L 53.54 -15 Q 57.95 -15 59.75 -11.46 L 59.75 -11.46 L 59.75 -14.94 L 60.82 -14.94 L 60.82 0 L 59.75 0 L 59.75 -3.3 Q 57.83 0.34 53.41 0.34 L 53.41 0.34 Q 50.02 0.34 48.11 -1.89 L 48.11 -1.89 Q 46.27 -3.96 46.27 -7.29 Z M 47.33 -7.29 L 47.33 -7.29 Q 47.33 -4.41 48.82 -2.61 L 48.82 -2.61 Q 50.48 -0.66 53.38 -0.66 L 53.38 -0.66 Q 56.26 -0.66 58.04 -2.61 L 58.04 -2.61 Q 59.75 -4.47 59.75 -7.29 L 59.75 -7.29 Q 59.75 -10.39 58.1 -12.19 Q 56.44 -14 53.38 -14 L 53.38 -14 Q 50.49 -14 48.85 -12 L 48.85 -12 Q 47.33 -10.14 47.33 -7.29 Z M 63.56 -5.3 L 63.56 -5.3 L 64.69 -5.3 Q 64.69 -0.66 70.03 -0.66 L 70.03 -0.66 Q 71.89 -0.66 73.1 -1.29 L 73.1 -1.29 Q 74.68 -2.08 74.68 -3.72 L 74.68 -3.72 Q 74.68 -5.82 71.5 -6.53 L 71.5 -6.53 Q 71.29 -6.59 68.48 -7.05 L 68.48 -7.05 Q 64.19 -7.71 64.19 -10.85 L 64.19 -10.85 Q 64.19 -12.86 65.86 -14 L 65.86 -14 Q 67.32 -15.03 69.49 -15.03 L 69.49 -15.03 Q 75.7 -15.03 75.73 -9.99 L 75.73 -9.99 L 74.56 -9.99 Q 74.56 -13.97 69.64 -13.97 L 69.64 -13.97 Q 67.95 -13.97 66.74 -13.26 L 66.74 -13.26 Q 65.33 -12.39 65.32 -10.85 L 65.32 -10.85 Q 65.32 -8.82 68.41 -8.22 L 68.41 -8.22 Q 69.21 -8.07 71.59 -7.65 L 71.59 -7.65 Q 75.82 -6.9 75.82 -3.75 L 75.82 -3.75 Q 75.82 -1.52 73.9 -0.45 L 73.9 -0.45 Q 72.41 0.4 70 0.4 L 70 0.4 Q 63.56 0.4 63.56 -5.3 Z M 77.89 -7.05 L 77.89 -7.05 Q 77.89 -10.71 79.96 -12.85 Q 82.03 -15 85.66 -15 L 85.66 -15 Q 87.89 -15 89.5 -13.97 L 89.5 -13.97 Q 91.3 -12.83 91.88 -10.65 L 91.88 -10.65 L 90.88 -10.14 Q 89.88 -14 85.61 -14 L 85.61 -14 Q 82.46 -14 80.65 -12.03 L 80.65 -12.03 Q 78.97 -10.17 78.97 -7.05 L 78.97 -7.05 Q 78.97 -4.13 80.65 -2.4 Q 82.32 -0.66 85.3 -0.66 L 85.3 -0.66 Q 87.39 -0.66 88.93 -1.66 L 88.93 -1.66 Q 90.59 -2.74 91 -4.89 L 91 -4.89 L 92.05 -4.44 Q 91.48 -2.01 89.53 -0.78 L 89.53 -0.78 Q 87.79 0.34 85.33 0.34 L 85.33 0.34 Q 81.87 0.34 79.88 -1.68 Q 77.89 -3.69 77.89 -7.05 Z M 95.46 0 L 94.38 0 L 94.38 -14.63 L 95.46 -14.63 L 95.46 -11.46 Q 95.95 -12.54 96.97 -13.4 L 96.97 -13.4 Q 98.89 -15 101.85 -15 L 101.85 -15 L 101.85 -14 Q 98.39 -14 96.78 -11.4 L 96.78 -11.4 Q 95.46 -9.24 95.46 -5.84 L 95.46 -5.84 L 95.46 0 Z M 105 0 L 103.92 0 L 103.92 -14.77 L 105 -14.77 L 105 0 Z M 103.92 -18.12 L 103.92 -18.12 L 103.92 -20.16 Q 104.09 -20.61 104.4 -20.61 L 104.4 -20.61 Q 104.66 -20.61 105 -20.19 L 105 -20.19 L 105 -18.09 Q 104.69 -17.7 104.4 -17.7 L 104.4 -17.7 Q 104.06 -17.7 103.92 -18.12 Z M 109.07 5.04 L 107.99 5.04 L 107.99 -14.63 L 109.07 -14.63 L 109.07 -11.46 Q 109.91 -13.17 111.56 -14.08 Q 113.22 -15 115.22 -15 L 115.22 -15 Q 118.71 -15 120.6 -12.88 Q 122.49 -10.77 122.49 -7.32 L 122.49 -7.32 Q 122.49 -3.81 120.66 -1.74 L 120.66 -1.74 Q 118.74 0.42 115.25 0.42 L 115.25 0.42 Q 110.82 0.42 109.07 -3.09 L 109.07 -3.09 L 109.07 5.04 Z M 109.07 -7.38 L 109.07 -7.38 Q 109.07 -4.23 110.58 -2.46 L 110.58 -2.46 Q 112.24 -0.57 115.37 -0.57 L 115.37 -0.57 Q 118.32 -0.57 119.94 -2.55 L 119.94 -2.55 Q 121.44 -4.38 121.44 -7.29 L 121.44 -7.29 Q 121.44 -10.24 119.91 -12.06 L 119.91 -12.06 Q 118.29 -14 115.4 -14 L 115.4 -14 Q 112.49 -14 110.78 -12.17 Q 109.07 -10.33 109.07 -7.38 Z M 126.77 -12.91 L 123.81 -12.91 L 123.81 -13.92 L 126.77 -13.92 L 126.77 -18.41 L 127.85 -18.41 L 127.85 -13.92 L 130.88 -13.92 L 130.88 -12.91 L 127.85 -12.91 L 127.85 0 L 126.84 0 L 126.77 -12.91 Z M 142.92 0 L 141.67 0 L 151.03 -20.35 L 152.12 -20.35 L 161.13 0 L 159.96 0 L 157.05 -6.53 L 145.88 -6.53 L 142.92 0 Z M 151.6 -18.84 L 146.37 -7.53 L 156.64 -7.53 L 151.6 -18.84 Z M 163.55 0 L 162.47 0 L 162.47 -14.63 L 163.55 -14.63 L 163.55 -11.46 Q 164.03 -12.54 165.06 -13.4 L 165.06 -13.4 Q 166.98 -15 169.94 -15 L 169.94 -15 L 169.94 -14 Q 166.48 -14 164.87 -11.4 L 164.87 -11.4 Q 163.55 -9.24 163.55 -5.84 L 163.55 -5.84 L 163.55 0 Z M 173.09 0 L 172 0 L 172 -14.63 L 173.09 -14.63 L 173.09 -11.46 Q 173.57 -12.54 174.59 -13.4 L 174.59 -13.4 Q 176.51 -15 179.47 -15 L 179.47 -15 L 179.47 -14 Q 176.02 -14 174.4 -11.4 L 174.4 -11.4 Q 173.09 -9.24 173.09 -5.84 L 173.09 -5.84 L 173.09 0 Z M 180.67 -7.29 L 180.67 -7.29 Q 180.67 -10.68 182.5 -12.77 L 182.5 -12.77 Q 184.48 -15 187.94 -15 L 187.94 -15 Q 192.35 -15 194.15 -11.46 L 194.15 -11.46 L 194.15 -14.94 L 195.22 -14.94 L 195.22 0 L 194.15 0 L 194.15 -3.3 Q 192.23 0.34 187.81 0.34 L 187.81 0.34 Q 184.42 0.34 182.5 -1.89 L 182.5 -1.89 Q 180.67 -3.96 180.67 -7.29 Z M 181.73 -7.29 L 181.73 -7.29 Q 181.73 -4.41 183.22 -2.61 L 183.22 -2.61 Q 184.88 -0.66 187.78 -0.66 L 187.78 -0.66 Q 190.66 -0.66 192.44 -2.61 L 192.44 -2.61 Q 194.15 -4.47 194.15 -7.29 L 194.15 -7.29 Q 194.15 -10.39 192.5 -12.19 Q 190.84 -14 187.78 -14 L 187.78 -14 Q 184.89 -14 183.25 -12 L 183.25 -12 Q 181.73 -10.14 181.73 -7.29 Z M 197.77 0.42 L 197.77 0.42 L 198.85 0.42 Q 199.19 4.38 204.23 4.38 L 204.23 4.38 Q 210.04 4.38 210.04 -0.63 L 210.04 -0.63 L 210.04 -2.55 Q 208.49 0.45 204.43 0.45 L 204.43 0.45 Q 201.71 0.45 200.08 -0.94 Q 198.46 -2.34 198.46 -5.01 L 198.46 -5.01 L 198.46 -14.63 L 199.54 -14.63 L 199.54 -5.04 Q 199.54 -2.81 200.84 -1.69 Q 202.15 -0.57 204.43 -0.57 L 204.43 -0.57 Q 207.22 -0.57 208.7 -2.29 L 208.7 -2.29 Q 210.04 -3.88 210.04 -6.64 L 210.04 -6.64 L 210.04 -14.63 L 211.13 -14.63 L 211.13 -0.6 Q 211.13 5.38 204.17 5.38 L 204.17 5.38 Q 201.56 5.38 199.91 4.35 L 199.91 4.35 Q 197.93 3.09 197.77 0.42 Z M 225.83 0 L 224.78 0 L 224.78 -20.35 L 238.74 -20.35 L 238.74 -19.35 L 225.83 -19.35 L 225.83 -11.1 L 236.88 -11.1 L 236.88 -10.14 L 225.83 -10.14 L 225.83 0 Z M 239.96 -5.07 L 239.96 -5.07 L 239.96 -14.63 L 241.04 -14.63 L 241.04 -5.1 Q 241.04 -2.9 242.34 -1.78 Q 243.65 -0.66 245.93 -0.66 L 245.93 -0.66 Q 248.72 -0.66 250.2 -2.37 L 250.2 -2.37 Q 251.54 -3.97 251.54 -6.69 L 251.54 -6.69 L 251.54 -14.63 L 252.63 -14.63 L 252.63 0 L 251.54 0 L 251.54 -2.64 Q 249.99 0.34 245.93 0.34 L 245.93 0.34 Q 243.21 0.34 241.58 -1.05 Q 239.96 -2.43 239.96 -5.07 Z M 256.79 0 L 255.7 0 L 255.7 -14.63 L 256.79 -14.63 L 256.79 -12 Q 258.28 -15 262.4 -15 L 262.4 -15 Q 265 -15 266.6 -13.74 L 266.6 -13.74 Q 268.37 -12.39 268.37 -9.93 L 268.37 -9.93 L 268.37 0 L 267.29 0 L 267.29 -9.62 Q 267.29 -11.75 265.97 -12.88 Q 264.65 -14 262.43 -14 L 262.43 -14 Q 259.82 -14 258.3 -12.4 Q 256.79 -10.8 256.79 -8.22 L 256.79 -8.22 L 256.79 0 Z M 270.7 -7.05 L 270.7 -7.05 Q 270.7 -10.71 272.78 -12.85 Q 274.85 -15 278.48 -15 L 278.48 -15 Q 280.71 -15 282.32 -13.97 L 282.32 -13.97 Q 284.12 -12.83 284.69 -10.65 L 284.69 -10.65 L 283.7 -10.14 Q 282.7 -14 278.42 -14 L 278.42 -14 Q 275.27 -14 273.47 -12.03 L 273.47 -12.03 Q 271.79 -10.17 271.79 -7.05 L 271.79 -7.05 Q 271.79 -4.13 273.46 -2.4 Q 275.14 -0.66 278.12 -0.66 L 278.12 -0.66 Q 280.21 -0.66 281.75 -1.66 L 281.75 -1.66 Q 283.4 -2.74 283.81 -4.89 L 283.81 -4.89 L 284.87 -4.44 Q 284.3 -2.01 282.35 -0.78 L 282.35 -0.78 Q 280.61 0.34 278.14 0.34 L 278.14 0.34 Q 274.69 0.34 272.7 -1.68 Q 270.7 -3.69 270.7 -7.05 Z M 289.06 -12.91 L 286.1 -12.91 L 286.1 -13.92 L 289.06 -13.92 L 289.06 -18.41 L 290.14 -18.41 L 290.14 -13.92 L 293.17 -13.92 L 293.17 -12.91 L 290.14 -12.91 L 290.14 0 L 289.13 0 L 289.06 -12.91 Z M 296.16 0 L 295.08 0 L 295.08 -14.77 L 296.16 -14.77 L 296.16 0 Z M 295.08 -18.12 L 295.08 -18.12 L 295.08 -20.16 Q 295.25 -20.61 295.56 -20.61 L 295.56 -20.61 Q 295.83 -20.61 296.16 -20.19 L 296.16 -20.19 L 296.16 -18.09 Q 295.85 -17.7 295.56 -17.7 L 295.56 -17.7 Q 295.22 -17.7 295.08 -18.12 Z M 298.29 -7.32 L 298.29 -7.32 Q 298.29 -10.81 300.34 -12.91 Q 302.4 -15 305.84 -15 L 305.84 -15 Q 309.3 -15 311.34 -12.9 Q 313.37 -10.8 313.37 -7.32 L 313.37 -7.32 Q 313.37 -3.87 311.31 -1.77 Q 309.24 0.34 305.79 0.34 L 305.79 0.34 Q 302.3 0.34 300.26 -1.83 L 300.26 -1.83 Q 298.29 -3.9 298.29 -7.32 Z M 299.37 -7.32 L 299.37 -7.32 Q 299.37 -4.32 301.11 -2.49 Q 302.84 -0.66 305.82 -0.66 L 305.82 -0.66 Q 308.79 -0.66 310.54 -2.49 Q 312.29 -4.32 312.29 -7.32 L 312.29 -7.32 Q 312.29 -10.39 310.57 -12.19 Q 308.85 -14 305.82 -14 L 305.82 -14 Q 302.81 -14 301.09 -12.18 Q 299.37 -10.36 299.37 -7.32 Z M 316.58 0 L 315.5 0 L 315.5 -14.63 L 316.58 -14.63 L 316.58 -12 Q 318.08 -15 322.19 -15 L 322.19 -15 Q 324.8 -15 326.4 -13.74 L 326.4 -13.74 Q 328.17 -12.39 328.17 -9.93 L 328.17 -9.93 L 328.17 0 L 327.08 0 L 327.08 -9.62 Q 327.08 -11.75 325.77 -12.88 Q 324.45 -14 322.22 -14 L 322.22 -14 Q 319.61 -14 318.1 -12.4 Q 316.58 -10.8 316.58 -8.22 L 316.58 -8.22 L 316.58 0 Z M 330.75 -5.3 L 330.75 -5.3 L 331.88 -5.3 Q 331.88 -0.66 337.22 -0.66 L 337.22 -0.66 Q 339.08 -0.66 340.28 -1.29 L 340.28 -1.29 Q 341.87 -2.08 341.87 -3.72 L 341.87 -3.72 Q 341.87 -5.82 338.69 -6.53 L 338.69 -6.53 Q 338.48 -6.59 335.67 -7.05 L 335.67 -7.05 Q 331.38 -7.71 331.38 -10.85 L 331.38 -10.85 Q 331.38 -12.86 333.05 -14 L 333.05 -14 Q 334.51 -15.03 336.68 -15.03 L 336.68 -15.03 Q 342.89 -15.03 342.92 -9.99 L 342.92 -9.99 L 341.75 -9.99 Q 341.75 -13.97 336.83 -13.97 L 336.83 -13.97 Q 335.14 -13.97 333.93 -13.26 L 333.93 -13.26 Q 332.52 -12.39 332.5 -10.85 L 332.5 -10.85 Q 332.5 -8.82 335.6 -8.22 L 335.6 -8.22 Q 336.4 -8.07 338.77 -7.65 L 338.77 -7.65 Q 343.01 -6.9 343.01 -3.75 L 343.01 -3.75 Q 343.01 -1.52 341.09 -0.45 L 341.09 -0.45 Q 339.59 0.4 337.19 0.4 L 337.19 0.4 Q 330.75 0.4 330.75 -5.3 Z M 357.51 0 L 356.43 0 L 356.43 -14.77 L 357.51 -14.77 L 357.51 0 Z M 356.43 -18.12 L 356.43 -18.12 L 356.43 -20.16 Q 356.6 -20.61 356.91 -20.61 L 356.91 -20.61 Q 357.17 -20.61 357.51 -20.19 L 357.51 -20.19 L 357.51 -18.09 Q 357.2 -17.7 356.91 -17.7 L 356.91 -17.7 Q 356.57 -17.7 356.43 -18.12 Z M 361.58 0 L 360.5 0 L 360.5 -14.63 L 361.58 -14.63 L 361.58 -12 Q 363.08 -15 367.19 -15 L 367.19 -15 Q 369.8 -15 371.4 -13.74 L 371.4 -13.74 Q 373.17 -12.39 373.17 -9.93 L 373.17 -9.93 L 373.17 0 L 372.08 0 L 372.08 -9.62 Q 372.08 -11.75 370.77 -12.88 Q 369.45 -14 367.22 -14 L 367.22 -14 Q 364.61 -14 363.1 -12.4 Q 361.58 -10.8 361.58 -8.22 L 361.58 -8.22 L 361.58 0 Z M 386.16 -10.17 L 386.16 -10.17 Q 386.16 -14.97 388.97 -17.61 Q 391.77 -20.24 396.69 -20.24 L 396.69 -20.24 Q 401.62 -20.24 404.45 -17.61 Q 407.29 -14.97 407.29 -10.17 L 407.29 -10.17 Q 407.29 -5.27 404.44 -2.53 Q 401.59 0.21 396.69 0.21 L 396.69 0.21 Q 391.74 0.21 388.95 -2.55 Q 386.16 -5.3 386.16 -10.17 Z M 387.25 -10.17 L 387.25 -10.17 Q 387.25 -5.84 389.77 -3.31 Q 392.29 -0.78 396.69 -0.78 L 396.69 -0.78 Q 401.16 -0.78 403.68 -3.28 Q 406.2 -5.79 406.2 -10.17 L 406.2 -10.17 Q 406.2 -14.55 403.62 -16.95 L 403.62 -16.95 Q 401.13 -19.26 396.69 -19.26 L 396.69 -19.26 Q 392.26 -19.26 389.75 -16.88 Q 387.25 -14.49 387.25 -10.17 Z M 410.64 0 L 409.56 0 L 409.56 -20.35 L 410.64 -20.35 L 410.64 -11.59 Q 412.38 -15.12 416.79 -15.12 L 416.79 -15.12 Q 416.81 -15.12 416.82 -15.12 L 416.82 -15.12 Q 420.31 -15.12 422.26 -12.88 L 422.26 -12.88 Q 424.06 -10.81 424.06 -7.32 L 424.06 -7.32 Q 424.06 -3.84 422.15 -1.77 Q 420.25 0.29 416.79 0.29 L 416.79 0.29 Q 414.81 0.29 413.17 -0.65 Q 411.52 -1.6 410.64 -3.27 L 410.64 -3.27 L 410.64 0 Z M 410.64 -7.27 L 410.64 -7.27 Q 410.64 -4.38 412.38 -2.53 Q 414.13 -0.69 416.97 -0.69 L 416.97 -0.69 Q 419.88 -0.69 421.51 -2.64 L 421.51 -2.64 Q 423 -4.44 423 -7.35 L 423 -7.35 Q 423 -10.36 421.51 -12.14 L 421.51 -12.14 Q 419.88 -14.14 416.94 -14.14 L 416.94 -14.14 Q 413.79 -14.14 412.15 -12.17 L 412.15 -12.17 Q 410.65 -10.4 410.64 -7.27 Z M 420.28 5.38 L 420.28 4.41 Q 426.4 4.41 426.39 -0.66 L 426.39 -0.66 L 426.39 -14.74 L 427.47 -14.74 L 427.47 -0.63 Q 427.49 5.38 420.28 5.38 L 420.28 5.38 Z M 426.47 -18.12 L 426.47 -18.12 L 426.47 -20.16 Q 426.65 -20.61 426.96 -20.61 L 426.96 -20.61 Q 427.22 -20.61 427.56 -20.19 L 427.56 -20.19 L 427.56 -18.06 Q 427.25 -17.7 426.96 -17.7 L 426.96 -17.7 Q 426.62 -17.7 426.47 -18.12 Z M 429.59 -7.29 L 429.59 -7.29 Q 429.59 -10.71 431.59 -12.85 Q 433.58 -15 436.98 -15 L 436.98 -15 Q 440.33 -15 442.35 -13.08 Q 444.36 -11.16 444.36 -7.87 L 444.36 -7.87 L 444.36 -7.02 L 430.65 -6.99 Q 430.83 -0.66 436.89 -0.66 L 436.89 -0.66 Q 438.93 -0.66 440.5 -1.59 Q 442.08 -2.52 442.76 -4.32 L 442.76 -4.32 L 443.88 -4.32 Q 443.1 -1.83 441.11 -0.69 L 441.11 -0.69 Q 439.31 0.34 436.82 0.34 L 436.82 0.34 Q 433.21 0.34 431.34 -1.77 L 431.34 -1.77 Q 429.59 -3.75 429.59 -7.29 Z M 430.65 -7.98 L 430.65 -7.98 L 443.1 -7.98 Q 443.04 -10.74 441.39 -12.37 Q 439.73 -14 436.98 -14 L 436.98 -14 Q 434.22 -14 432.54 -12.37 Q 430.85 -10.74 430.65 -7.98 Z M 445.55 -7.05 L 445.55 -7.05 Q 445.55 -10.71 447.62 -12.85 Q 449.69 -15 453.33 -15 L 453.33 -15 Q 455.55 -15 457.16 -13.97 L 457.16 -13.97 Q 458.96 -12.83 459.54 -10.65 L 459.54 -10.65 L 458.54 -10.14 Q 457.54 -14 453.27 -14 L 453.27 -14 Q 450.12 -14 448.32 -12.03 L 448.32 -12.03 Q 446.63 -10.17 446.63 -7.05 L 446.63 -7.05 Q 446.63 -4.13 448.31 -2.4 Q 449.99 -0.66 452.96 -0.66 L 452.96 -0.66 Q 455.05 -0.66 456.59 -1.66 L 456.59 -1.66 Q 458.25 -2.74 458.66 -4.89 L 458.66 -4.89 L 459.71 -4.44 Q 459.14 -2.01 457.19 -0.78 L 457.19 -0.78 Q 455.45 0.34 452.99 0.34 L 452.99 0.34 Q 449.53 0.34 447.54 -1.68 Q 445.55 -3.69 445.55 -7.05 Z M 463.9 -12.91 L 460.94 -12.91 L 460.94 -13.92 L 463.9 -13.92 L 463.9 -18.41 L 464.99 -18.41 L 464.99 -13.92 L 468.02 -13.92 L 468.02 -12.91 L 464.99 -12.91 L 464.99 0 L 463.97 0 L 463.9 -12.91 Z M 469.42 -5.3 L 469.42 -5.3 L 470.55 -5.3 Q 470.55 -0.66 475.9 -0.66 L 475.9 -0.66 Q 477.76 -0.66 478.96 -1.29 L 478.96 -1.29 Q 480.54 -2.08 480.54 -3.72 L 480.54 -3.72 Q 480.54 -5.82 477.36 -6.53 L 477.36 -6.53 Q 477.16 -6.59 474.35 -7.05 L 474.35 -7.05 Q 470.05 -7.71 470.05 -10.85 L 470.05 -10.85 Q 470.05 -12.86 471.72 -14 L 471.72 -14 Q 473.19 -15.03 475.36 -15.03 L 475.36 -15.03 Q 481.57 -15.03 481.6 -9.99 L 481.6 -9.99 L 480.42 -9.99 Q 480.42 -13.97 475.5 -13.97 L 475.5 -13.97 Q 473.82 -13.97 472.6 -13.26 L 472.6 -13.26 Q 471.2 -12.39 471.18 -10.85 L 471.18 -10.85 Q 471.18 -8.82 474.27 -8.22 L 474.27 -8.22 Q 475.08 -8.07 477.45 -7.65 L 477.45 -7.65 Q 481.68 -6.9 481.68 -3.75 L 481.68 -3.75 Q 481.68 -1.52 479.77 -0.45 L 479.77 -0.45 Q 478.27 0.4 475.87 0.4 L 475.87 0.4 Q 469.42 0.4 469.42 -5.3 Z" stroke-linecap="round" />
</g>
</svg>